<?xml version="1.0" encoding="UTF-8"?>
<svg version="1.1" xmlns="http://www.w3.org/2000/svg" width="512" height="512">
<path d="M0 0 C0.84651123 0.00337372 1.69302246 0.00674744 2.56518555 0.01022339 C16.28998287 0.08909226 29.41074023 0.98739058 42.75 4.4375 C43.67022949 4.66824219 44.59045898 4.89898438 45.53857422 5.13671875 C66.13988341 10.4477468 86.51874622 18.81016214 103.75 31.4375 C104.79607422 32.20030273 104.79607422 32.20030273 105.86328125 32.97851562 C113.66041997 38.70853726 121.03286584 44.45216611 127.75 51.4375 C128.9565625 52.6440625 128.9565625 52.6440625 130.1875 53.875 C131.033125 54.720625 131.87875 55.56625 132.75 56.4375 C133.57371094 57.19160156 133.57371094 57.19160156 134.4140625 57.9609375 C159.48076392 81.58346682 173.85746643 116.32991762 180.75 149.4375 C180.9665625 150.45585937 181.183125 151.47421875 181.40625 152.5234375 C196.12393901 233.25429044 142.14768113 317.82405436 98.52734375 381.12890625 C90.1609361 393.16588685 81.33690471 404.86312952 72.04370117 416.19970703 C71.23817307 417.18278839 70.43264496 418.16586975 69.60270691 419.17874146 C68.99131363 419.92413177 68.37992035 420.66952209 67.75 421.4375 C69.03737564 421.44114563 70.32475128 421.44479126 71.65113831 421.44854736 C83.78992882 421.4855061 95.92846585 421.54328879 108.06706333 421.62140274 C114.3074962 421.66089327 120.54778763 421.69307423 126.78833008 421.70849609 C132.81205089 421.72365197 138.83538288 421.75807938 144.85893059 421.80580902 C147.1557572 421.82063369 149.45263932 421.82854163 151.74951363 421.82938385 C154.96957871 421.83175188 158.18856785 421.85882011 161.40844727 421.89160156 C162.35575714 421.8865712 163.30306702 421.88154083 164.27908325 421.87635803 C172.02241619 421.99813059 176.92021599 424.21450369 182.46289062 429.79394531 C183.41923401 430.74578705 183.41923401 430.74578705 184.39489746 431.71685791 C185.39051697 432.73099762 185.39051697 432.73099762 186.40625 433.765625 C187.11221313 434.4734613 187.81817627 435.18129761 188.54553223 435.9105835 C190.03144491 437.40319022 191.51376978 438.89937638 192.99267578 440.39892578 C195.23614101 442.67344914 197.49000376 444.93722406 199.74609375 447.19921875 C201.19593482 448.65823603 202.64517338 450.11785231 204.09375 451.578125 C204.75749634 452.24612122 205.42124268 452.91411743 206.10510254 453.60235596 C209.90006292 457.4545033 213.50385126 461.41851508 217.04046631 465.50805664 C219.74257019 468.55775166 222.62238332 471.41438252 225.5234375 474.2734375 C226.13265045 474.87886383 226.7418634 475.48429016 227.36953735 476.10806274 C229.28557209 478.01203359 231.20486062 479.91266933 233.125 481.8125 C235.6773383 484.33828437 238.2263636 486.86734577 240.7734375 489.3984375 C241.65145523 490.26400772 241.65145523 490.26400772 242.54721069 491.14706421 C246.19754348 494.77498093 247.89849317 496.61399651 248.0625 501.75 C248.03413514 505.27291599 247.81650675 506.33108919 245.875 509.4375 C242.11958988 512.97200365 238.89151968 512.58121677 233.9746809 512.57172108 C233.1583867 512.57407331 232.34209251 512.57642554 231.50106212 512.57884905 C228.73622458 512.58556313 225.97143378 512.5850801 223.20658875 512.58467102 C221.21614679 512.58796814 219.2257055 512.59169338 217.23526508 512.5958125 C211.74247569 512.60585777 206.24969723 512.60955334 200.75689995 512.61220181 C194.84198739 512.61609735 188.92708353 512.62567613 183.01217651 512.63441467 C169.39282566 512.65326412 155.77347328 512.66343789 142.15411279 512.67187535 C135.42701792 512.67607945 128.69992395 512.68130173 121.97282984 512.68655988 C98.9547747 512.70445072 75.93671931 512.719448 52.91865826 512.72688007 C51.47317524 512.72735483 50.02769223 512.72783072 48.58220922 512.72830774 C47.86536526 512.72854411 47.14852131 512.72878049 46.4099548 512.72902403 C42.77794187 512.73022525 39.14592894 512.73144069 35.51391602 512.73266602 C34.79312656 512.73290617 34.07233711 512.73314632 33.32970555 512.73339374 C9.95162231 512.74128947 -13.42641023 512.76472659 -36.80447133 512.79722196 C-61.50897633 512.83149852 -86.21345167 512.85122916 -110.91798085 512.85452431 C-113.62851442 512.85494187 -116.33904798 512.85542143 -119.04958153 512.85594749 C-119.71701309 512.85607069 -120.38444466 512.85619388 -121.07210143 512.8563208 C-131.15904145 512.85851078 -141.24592855 512.87182447 -151.3328495 512.89098549 C-162.80243405 512.91263477 -174.27192601 512.92077142 -185.74152867 512.91101871 C-191.59727989 512.90645733 -197.45283984 512.90846655 -203.30856514 512.92778015 C-208.66459749 512.94529371 -214.02029736 512.94451079 -219.37633266 512.92888286 C-221.31847951 512.92648874 -223.26064867 512.93092277 -225.20276121 512.94271151 C-227.83463619 512.95770316 -230.46531357 512.94824698 -233.09715748 512.93248463 C-233.85834956 512.94270683 -234.61954165 512.95292904 -235.40380016 512.96346101 C-240.29749097 512.89910828 -242.82081238 511.93536687 -246.25 508.4375 C-248.04398881 504.84952237 -247.94496442 501.33736649 -247.25 497.4375 C-245.92370605 495.46740723 -245.92370605 495.46740723 -244.16992188 493.58789062 C-243.5323999 492.89848389 -242.89487793 492.20907715 -242.23803711 491.4987793 C-239.2012155 488.35007675 -236.14537508 485.22869424 -233.03125 482.15625 C-232.36967896 481.49846558 -231.70810791 480.84068115 -231.02648926 480.16296387 C-228.23421856 477.38683442 -225.43594584 474.61678463 -222.63818359 471.84619141 C-220.57959102 469.8058292 -218.52412097 467.76235669 -216.46875 465.71875 C-215.84875122 465.10704956 -215.22875244 464.49534912 -214.58996582 463.8651123 C-210.86301433 460.1587642 -207.35936883 456.32163319 -203.92349243 452.34475708 C-201.48234623 449.5626152 -198.91385695 446.92074101 -196.30859375 444.29296875 C-195.7778273 443.75650223 -195.24706085 443.22003571 -194.70021057 442.66731262 C-193.59162898 441.54939234 -192.48167154 440.43283479 -191.37036133 439.31762695 C-189.68040169 437.61786049 -188.00141426 435.90770426 -186.32226562 434.19726562 C-185.23503417 433.10351104 -184.1471656 432.0103893 -183.05859375 430.91796875 C-182.56467636 430.41170456 -182.07075897 429.90544037 -181.56187439 429.38383484 C-175.12260526 422.98503906 -169.73106805 421.99198334 -161.02197266 422.00512695 C-160.00672516 421.9949353 -158.99147766 421.98474365 -157.94546509 421.97424316 C-154.60160793 421.94413468 -151.25803736 421.93485028 -147.9140625 421.92578125 C-145.59092254 421.90893302 -143.26779169 421.89078259 -140.94467163 421.87138367 C-134.83899786 421.82389347 -128.73336103 421.79407756 -122.62756348 421.76794434 C-116.39356188 421.73813404 -110.15968751 421.69160526 -103.92578125 421.64648438 C-91.7005874 421.56046227 -79.47536736 421.49311195 -67.25 421.4375 C-68.00259598 420.55262909 -68.75519196 419.66775818 -69.53059387 418.756073 C-70.52931856 417.57945105 -71.52798813 416.40278231 -72.52661133 415.22607422 C-73.02131172 414.64472214 -73.51601212 414.06337006 -74.02570343 413.46440125 C-77.84682246 408.95851911 -81.46925126 404.34644146 -84.9375 399.5625 C-85.51290527 398.77423828 -86.08831055 397.98597656 -86.68115234 397.17382812 C-98.44802709 380.97191648 -109.84160909 364.54878466 -120.25 347.4375 C-121.0244043 346.16471191 -121.0244043 346.16471191 -121.81445312 344.86621094 C-161.17356256 279.84955325 -195.39258845 210.06219499 -176.5 132.8125 C-168.4397147 104.33491614 -153.08912175 75.71254672 -131.25 55.4375 C-130.445625 54.633125 -129.64125 53.82875 -128.8125 53 C-127.966875 52.154375 -127.12125 51.30875 -126.25 50.4375 C-125.77046875 49.89996094 -125.2909375 49.36242188 -124.796875 48.80859375 C-105.50246747 27.99323067 -76.99950233 14.66848177 -50.25 6.625 C-49.33839111 6.34688477 -48.42678223 6.06876953 -47.48754883 5.78222656 C-31.87570901 1.31197789 -16.17593934 -0.12643714 0 0 Z " fill="#FC5F95" transform="translate(256.25,-0.4375)"/>
<path d="M0 0 C36.94140716 -1.06689985 71.43507905 13.67456596 98.02636719 38.76660156 C115.53364837 55.81533688 127.97644973 77.71596988 134.43359375 101.21875 C134.77519531 102.28867188 135.11679687 103.35859375 135.46875 104.4609375 C136.65479441 109.08026837 137.1431417 113.60134991 137.55859375 118.34375 C137.64133545 119.2831543 137.72407715 120.22255859 137.80932617 121.19042969 C140.69951217 155.65879379 132.85269777 188.13239348 112.43359375 216.21875 C111.84320313 217.0334375 111.2528125 217.848125 110.64453125 218.6875 C101.09794273 231.19962453 89.67951586 241.76837703 76.43359375 250.21875 C75.34820312 250.91484375 74.2628125 251.6109375 73.14453125 252.328125 C59.78769476 260.39853206 44.84184963 266.56591349 29.43359375 269.21875 C28.59401123 269.38431396 27.75442871 269.54987793 26.8894043 269.72045898 C18.97140984 271.19716265 11.29074484 271.56803225 3.24609375 271.53125 C1.97032471 271.52633545 0.69455566 271.5214209 -0.61987305 271.51635742 C-36.96434201 271.06634971 -70.118156 255.28191623 -95.51025391 229.69921875 C-104.46463754 220.36698093 -111.89506303 209.84584009 -117.56640625 198.21875 C-118.29923828 196.76662109 -118.29923828 196.76662109 -119.046875 195.28515625 C-129.06265002 174.66141386 -134.05063785 152.23783281 -132.56640625 129.21875 C-132.52918457 128.47802246 -132.49196289 127.73729492 -132.45361328 126.97412109 C-130.50346037 90.49268913 -113.35351633 58.20655508 -86.62890625 33.53125 C-61.9408147 11.94334758 -32.2572122 1.97853656 0 0 Z " fill="#FCC042" transform="translate(253.56640625,46.78125)"/>
<path d="M0 0 C1.01066025 -0.02613876 2.0213205 -0.05227753 3.06260681 -0.07920837 C6.39916705 -0.158575 9.73535344 -0.21321588 13.07250977 -0.26098633 C14.79035014 -0.2868151 14.79035014 -0.2868151 16.54289436 -0.31316566 C22.60957306 -0.39911024 28.67607758 -0.46233048 34.74316406 -0.51074219 C39.74278405 -0.5551533 44.73826208 -0.64550774 49.73632812 -0.77734375 C55.79333719 -0.93700261 61.84657671 -1.01655299 67.90559578 -1.04036903 C70.20185656 -1.062225 72.49803962 -1.11117691 74.79308891 -1.18889427 C93.59330648 -1.78978139 93.59330648 -1.78978139 100.42947388 3.9883728 C103.70962721 7.23973631 106.53590163 10.74117264 109.24791145 14.47340965 C119.75493832 28.59194254 139.40257262 51.17869972 157.42016602 54.00073242 C173.41980257 54.51684973 184.61969313 43.77247288 195.82641602 33.59448242 C202.59195244 27.23254627 209.17243569 20.67334178 215.28735352 13.68041992 C216.13199409 12.75317863 216.13199409 12.75317863 216.99369812 11.8072052 C218.88042545 9.67533867 218.88042545 9.67533867 220.08802795 7.26255798 C222.39579044 3.57535004 224.67088082 1.09159378 229.04525757 0.0827713 C236.1827114 -0.76917472 243.37578762 -0.53762427 250.54907227 -0.42504883 C252.89740807 -0.41840916 255.24575577 -0.41518041 257.59410095 -0.41520691 C262.50785829 -0.40592773 267.42013314 -0.36675102 272.33349609 -0.30419922 C278.62398252 -0.22490267 284.91300528 -0.20254361 291.2039423 -0.20035267 C296.05026937 -0.19537432 300.89628464 -0.16908305 305.74249077 -0.13547325 C308.06165501 -0.12025738 310.3808536 -0.10956755 312.70005989 -0.10352516 C315.94336645 -0.09010736 319.18526211 -0.0501656 322.42822266 -0.00244141 C323.38166565 -0.00268311 324.33510864 -0.0029248 325.31744385 -0.00317383 C333.06796835 0.1579839 337.98920922 2.36401409 343.53930664 7.95092773 C344.1768689 8.58548889 344.81443115 9.22005005 345.47131348 9.87384033 C346.13505981 10.54993347 346.79880615 11.22602661 347.48266602 11.92260742 C348.18862915 12.63044373 348.89459229 13.33828003 349.62194824 14.06756592 C351.10786093 15.56017265 352.5901858 17.0563588 354.0690918 18.5559082 C356.31255702 20.83043157 358.56641978 23.09420648 360.82250977 25.35620117 C362.27235083 26.81521845 363.7215894 28.27483474 365.17016602 29.73510742 C365.83391235 30.40310364 366.49765869 31.07109985 367.18151855 31.75933838 C370.97647893 35.61148572 374.58026728 39.5754975 378.11688232 43.66503906 C380.81898621 46.71473408 383.69879934 49.57136495 386.59985352 52.43041992 C387.20906647 53.03584625 387.81827942 53.64127258 388.44595337 54.26504517 C390.3619881 56.16901601 392.28127664 58.06965175 394.20141602 59.96948242 C396.75375431 62.49526679 399.30277962 65.0243282 401.84985352 67.55541992 C402.72787125 68.42099014 402.72787125 68.42099014 403.62362671 69.30404663 C407.27395949 72.93196335 408.97490918 74.77097893 409.13891602 79.90698242 C409.11055115 83.42989842 408.89292277 84.48807162 406.95141602 87.59448242 C403.19600589 91.12898607 399.9679357 90.73819919 395.05109692 90.7287035 C394.23480272 90.73105573 393.41850852 90.73340796 392.57747814 90.73583147 C389.8126406 90.74254556 387.04784979 90.74206252 384.28300476 90.74165344 C382.2925628 90.74495056 380.30212152 90.7486758 378.31168109 90.75279492 C372.8188917 90.76284019 367.32611324 90.76653576 361.83331597 90.76918423 C355.9184034 90.77307977 350.00349955 90.78265855 344.08859253 90.79139709 C330.46924168 90.81024654 316.84988929 90.82042031 303.23052881 90.82885778 C296.50343394 90.83306187 289.77633997 90.83828416 283.04924585 90.8435423 C260.03119071 90.86143315 237.01313533 90.87643042 213.99507427 90.8838625 C212.54959126 90.88433726 211.10410825 90.88481314 209.65862523 90.88529016 C208.94178128 90.88552653 208.22493732 90.88576291 207.48637082 90.88600645 C203.85435789 90.88720767 200.22234496 90.88842311 196.59033203 90.88964844 C195.86954258 90.88988859 195.14875313 90.89012874 194.40612157 90.89037616 C171.02803833 90.89827189 147.65000578 90.92170901 124.27194469 90.95420438 C99.56743968 90.98848095 74.86296435 91.00821159 50.15843517 91.01150674 C47.44790159 91.01192429 44.73736804 91.01240386 42.02683449 91.01292992 C41.35940292 91.01305311 40.69197136 91.0131763 40.00431459 91.01330322 C29.91737456 91.0154932 19.83048747 91.02880689 9.74356651 91.04796791 C-1.72601803 91.06961719 -13.19550999 91.07775384 -24.66511265 91.06800113 C-30.52086388 91.06343975 -36.37642383 91.06544897 -42.23214912 91.08476257 C-47.58818148 91.10227613 -52.94388135 91.10149321 -58.29991665 91.08586528 C-60.24206349 91.08347116 -62.18423265 91.08790519 -64.12634519 91.09969393 C-66.75822018 91.11468558 -69.38889756 91.1052294 -72.02074146 91.08946705 C-73.16252959 91.10480036 -73.16252959 91.10480036 -74.32738414 91.12044343 C-79.22107495 91.0560907 -81.74439636 90.09234929 -85.17358398 86.59448242 C-86.9675728 83.00650479 -86.86854841 79.49434891 -86.17358398 75.59448242 C-84.84729004 73.62438965 -84.84729004 73.62438965 -83.09350586 71.74487305 C-82.1372229 70.71076294 -82.1372229 70.71076294 -81.16162109 69.65576172 C-78.12479949 66.50705917 -75.06895906 63.38567666 -71.95483398 60.31323242 C-71.29326294 59.655448 -70.63169189 58.99766357 -69.95007324 58.31994629 C-67.15780255 55.54381684 -64.35952982 52.77376705 -61.56176758 50.00317383 C-59.503175 47.96281162 -57.44770496 45.91933911 -55.39233398 43.87573242 C-54.46233582 42.95818176 -54.46233582 42.95818176 -53.5135498 42.02209473 C-49.78659832 38.31574662 -46.28295282 34.47861561 -42.84707642 30.5017395 C-40.40593021 27.71959762 -37.83744094 25.07772343 -35.23217773 22.44995117 C-34.70141129 21.91348465 -34.17064484 21.37701813 -33.62379456 20.82429504 C-32.51521296 19.70637477 -31.40525552 18.58981721 -30.29394531 17.47460938 C-28.60398567 15.77484292 -26.92499824 14.06468668 -25.24584961 12.35424805 C-24.15861815 11.26049346 -23.07074959 10.16737173 -21.98217773 9.07495117 C-21.24130165 8.31555489 -21.24130165 8.31555489 -20.48545837 7.54081726 C-14.10181005 1.19729268 -8.64089115 0.13107729 0 0 Z " fill="#1CC88D" transform="translate(95.173583984375,421.405517578125)"/>
<path d="M0 0 C4.64171192 0.14530837 9.28360987 0.13815833 13.92723179 0.150805 C21.69615593 0.19282184 29.45776012 0.33385895 37.22380161 0.54677057 C47.1784721 0.81931335 57.1283263 0.93244491 67.08628559 0.99430895 C75.69391726 1.04810056 84.30053754 1.16384044 92.90730095 1.29488087 C95.65612949 1.33523303 98.40499195 1.36906029 101.15390873 1.40278482 C105.46629646 1.46051469 109.77626977 1.55667712 114.08719158 1.68248224 C115.66431692 1.7235768 117.24179029 1.75321119 118.81935787 1.77034616 C132.19291126 1.93038203 132.19291126 1.93038203 136.66087437 6.37834406 C137.57699513 7.56417079 138.48016961 8.7601721 139.36686802 9.96815729 C146.24444385 16.15542754 154.19025612 21.66691874 162.36686802 25.96815729 C163.00624302 26.30718073 163.64561802 26.64620417 164.30436802 26.99550104 C171.12293239 30.07806035 179.15303424 30.24766148 186.26139927 28.08925104 C189.07872651 26.86800618 191.70473456 25.49771643 194.36686802 23.96815729 C195.68944614 23.2237237 195.68944614 23.2237237 197.03874302 22.46425104 C205.07930305 17.64223888 213.51934057 11.45877221 219.76297092 4.3868432 C224.24546983 0.42196411 232.09400657 1.0226372 237.7189188 1.33583307 C250.75614234 3.43986666 260.18841329 16.35655942 268.66069126 25.62440729 C271.41916838 28.61376474 274.24914916 31.53384658 277.07194614 34.46229792 C281.16258186 38.72669388 285.22722945 43.01301029 289.23381138 47.35658503 C290.0349184 48.22484415 290.83602543 49.09310328 291.66140842 49.98767328 C293.36686802 51.96815729 293.36686802 51.96815729 293.36686802 52.96815729 C247.84491401 53.05966172 202.32296971 53.13017003 156.8009419 53.17241861 C151.42976934 53.17742159 146.05859695 53.18259886 140.68742466 53.18788385 C139.61809612 53.1889331 138.54876759 53.18998234 137.44703516 53.19106337 C120.12009395 53.20848073 102.7932057 53.24002575 85.46629594 53.27676848 C67.69457007 53.31414087 49.92287199 53.3363853 32.15110844 53.34451127 C21.18010124 53.35000673 10.20924368 53.36737951 -0.76171748 53.39982316 C-8.27929849 53.42092537 -15.79680185 53.42736709 -23.31441035 53.4221628 C-27.65527868 53.41959432 -31.99588506 53.42360197 -36.33670712 53.44497919 C-40.30873278 53.46439786 -44.28031952 53.4654581 -48.25236509 53.45175287 C-49.69121512 53.45005821 -51.13009217 53.45517232 -52.56888875 53.46769002 C-54.5214865 53.48369355 -56.47425001 53.47272008 -58.42687416 53.46034861 C-59.51249458 53.46186749 -60.59811501 53.46338637 -61.71663302 53.46495128 C-65.3411878 52.84754766 -67.01099037 51.49338781 -69.63313198 48.96815729 C-71.429882 45.37465725 -71.31063855 41.87552079 -70.63313198 37.96815729 C-69.45656109 36.22793627 -69.45656109 36.22793627 -67.81922817 34.52720881 C-64.99684695 31.50236948 -62.37862075 28.39710887 -59.82687402 25.14019477 C-42.27398101 3.0941717 -27.48878066 -1.02548395 0 0 Z " fill="#81E6A4" transform="translate(79.633131980896,459.03184270858765)"/>
<path d="M0 0 C2.41583261 0.00314058 4.8304134 -0.02029605 7.24609375 -0.0456543 C21.85672643 -0.10755308 35.25502581 2.16759629 49.12890625 6.87817383 C50.1451709 7.22187012 51.16143555 7.56556641 52.20849609 7.91967773 C90.69515394 21.43127165 119.80675511 49.97047236 137.8671875 86.06176758 C146.90450115 104.9007448 150.50395851 124.89542518 150.50170898 145.67651367 C150.50388085 147.91450454 150.52204199 150.15198948 150.54101562 152.38989258 C150.59151109 164.7933452 149.60229551 176.79240595 145.62890625 188.62817383 C145.3661792 189.42666748 145.10345215 190.22516113 144.83276367 191.04785156 C144.01716387 193.47927588 143.17453103 195.89895498 142.31640625 198.31567383 C141.92775391 199.41298828 141.92775391 199.41298828 141.53125 200.5324707 C135.84941647 216.19320283 127.37841214 230.82430763 116.31640625 243.31567383 C115.46304687 244.28891602 114.6096875 245.2621582 113.73046875 246.26489258 C87.32425655 275.95901962 51.02059019 293.97007281 11.31640625 296.31567383 C-31.69685588 298.35568457 -68.94179288 282.87794186 -100.68359375 254.31567383 C-101.36035156 253.71239258 -102.03710938 253.10911133 -102.734375 252.48754883 C-126.82592251 229.71844904 -143.11762993 194.53581298 -144.88867188 161.48901367 C-144.98697053 157.38705091 -145.01759002 153.29339942 -144.99609375 149.19067383 C-144.99427094 148.467117 -144.99244812 147.74356018 -144.99057007 146.99807739 C-144.82232919 107.25103208 -129.63361834 71.86778024 -102.3984375 42.99145508 C-98.08738909 38.74243614 -93.49645151 34.97867859 -88.68359375 31.31567383 C-87.83410156 30.65051758 -86.98460937 29.98536133 -86.109375 29.30004883 C-68.03595007 15.57613274 -47.7178191 7.29732478 -25.68359375 2.31567383 C-25.03970703 2.14430908 -24.39582031 1.97294434 -23.73242188 1.79638672 C-15.8761184 -0.08942906 -8.03174921 -0.02175534 0 0 Z M-5.91845703 12.44458008 C-34.77253142 14.25703653 -63.00228817 24.8761576 -84.68359375 44.31567383 C-85.66972656 45.17032227 -86.65585938 46.0249707 -87.671875 46.90551758 C-107.66652474 64.45411488 -121.76958453 87.6448475 -128.68359375 113.31567383 C-129.02390625 114.38301758 -129.36421875 115.45036133 -129.71484375 116.55004883 C-130.90399012 121.17237584 -131.39282959 125.694711 -131.80859375 130.44067383 C-131.89133545 131.38007813 -131.97407715 132.31948242 -132.05932617 133.28735352 C-135.26629238 171.53363912 -125.01530813 206.9923266 -100.21484375 236.46411133 C-76.49075092 263.19032701 -44.28600238 281.03899509 -8.23291016 283.55664062 C23.02760683 284.75966269 53.43019795 278.7653517 79.31640625 260.31567383 C80.35152344 259.59250977 81.38664063 258.8693457 82.453125 258.12426758 C99.74710255 245.65962082 113.87333581 229.46970322 123.31640625 210.31567383 C123.78304688 209.39270508 124.2496875 208.46973633 124.73046875 207.51879883 C134.765685 186.83081455 139.80550493 164.4102407 138.31640625 141.31567383 C138.26057373 140.20458252 138.26057373 140.20458252 138.20361328 139.07104492 C136.24995502 102.52403849 119.0380296 70.55263369 92.5078125 45.68286133 C65.26988243 22.10375769 29.9647991 10.37484453 -5.91845703 12.44458008 Z " fill="#FC3F80" transform="translate(253.68359375,34.684326171875)"/>
<path d="M0 0 C36.94140716 -1.06689985 71.43507905 13.67456596 98.02636719 38.76660156 C115.53364837 55.81533688 127.97644973 77.71596988 134.43359375 101.21875 C134.77519531 102.28867188 135.11679687 103.35859375 135.46875 104.4609375 C136.65479441 109.08026837 137.1431417 113.60134991 137.55859375 118.34375 C137.64133545 119.2831543 137.72407715 120.22255859 137.80932617 121.19042969 C140.69951217 155.65879379 132.85269777 188.13239348 112.43359375 216.21875 C111.84320313 217.0334375 111.2528125 217.848125 110.64453125 218.6875 C101.09794273 231.19962453 89.67951586 241.76837703 76.43359375 250.21875 C75.34820312 250.91484375 74.2628125 251.6109375 73.14453125 252.328125 C59.78769476 260.39853206 44.84184963 266.56591349 29.43359375 269.21875 C28.59401123 269.38431396 27.75442871 269.54987793 26.8894043 269.72045898 C18.97140984 271.19716265 11.29074484 271.56803225 3.24609375 271.53125 C1.97032471 271.52633545 0.69455566 271.5214209 -0.61987305 271.51635742 C-36.96434201 271.06634971 -70.118156 255.28191623 -95.51025391 229.69921875 C-104.46463754 220.36698093 -111.89506303 209.84584009 -117.56640625 198.21875 C-118.29923828 196.76662109 -118.29923828 196.76662109 -119.046875 195.28515625 C-129.06265002 174.66141386 -134.05063785 152.23783281 -132.56640625 129.21875 C-132.52918457 128.47802246 -132.49196289 127.73729492 -132.45361328 126.97412109 C-130.50346037 90.49268913 -113.35351633 58.20655508 -86.62890625 33.53125 C-61.9408147 11.94334758 -32.2572122 1.97853656 0 0 Z M-46.56640625 23.21875 C-47.66597656 23.72019531 -48.76554687 24.22164062 -49.8984375 24.73828125 C-78.98824859 38.43326398 -101.31150513 63.18667591 -112.94140625 93.09375 C-118.06987633 107.42548632 -119.91571525 121.38549348 -120.00390625 136.59375 C-120.01405762 137.82883301 -120.02420898 139.06391602 -120.03466797 140.33642578 C-119.95295856 148.95274075 -118.68759895 156.87745422 -116.56640625 165.21875 C-116.27648804 166.37721436 -116.27648804 166.37721436 -115.98071289 167.55908203 C-107.88975369 198.13675122 -87.54483544 225.43593238 -60.33300781 241.54052734 C-50.10287755 247.39450599 -39.91864677 252.02330452 -28.56640625 255.21875 C-27.40238281 255.56679688 -27.40238281 255.56679688 -26.21484375 255.921875 C4.54866041 264.50133831 38.68342434 257.0776207 65.921875 241.9140625 C72.64973097 238.0002412 78.64235184 233.40302687 84.43359375 228.21875 C84.98740723 227.72536133 85.5412207 227.23197266 86.11181641 226.72363281 C103.19878533 211.22603422 114.99167884 191.26332575 121.43359375 169.21875 C121.74167969 168.18234375 122.04976562 167.1459375 122.3671875 166.078125 C130.88638004 136.24057026 125.38082671 103.19414615 110.87109375 76.21875 C102.6340291 61.47213165 91.33828838 48.2610302 77.74609375 38.21875 C77.04621338 37.70038574 76.34633301 37.18202148 75.62524414 36.64794922 C41.35275178 11.59649188 -7.73666497 3.88696725 -46.56640625 23.21875 Z " fill="#FC9D29" transform="translate(253.56640625,46.78125)"/>
<path d="M0 0 C1.67987227 1.31665664 3.34466005 2.65263027 5 4 C7.61833699 5.44106233 10.29915202 6.72266597 13 8 C12.31413597 15.31252088 11.45272983 22.59274827 10.5 29.875 C10.36980469 30.89335937 10.23960937 31.91171875 10.10546875 32.9609375 C9.97785156 33.940625 9.85023438 34.9203125 9.71875 35.9296875 C9.54762695 37.24815674 9.54762695 37.24815674 9.37304688 38.59326172 C8.9228664 41.4976329 8.20884401 44.26143905 7.41015625 47.0859375 C6.83283751 50.88715975 7.02442327 53.58932809 9.265625 56.83007812 C10.95093091 58.85694482 12.71264871 60.7472615 14.5625 62.625 C15.17037354 63.25325684 15.77824707 63.88151367 16.40454102 64.52880859 C19.42901694 67.40755069 21.36992973 68.8565465 25.5 69.796875 C30.44757742 68.67041764 32.95187327 66.1880851 36.4375 62.625 C37.07365234 62.04105469 37.70980469 61.45710938 38.36523438 60.85546875 C41.67138557 57.55286874 43.41955494 55.11930443 43.53125 50.3671875 C43.40544245 48.57378972 43.22364061 46.7838408 43 45 C42.87310791 43.95537598 42.74621582 42.91075195 42.61547852 41.83447266 C42.14816444 38.38010704 41.61568397 34.94160824 41.0625 31.5 C39.83122734 23.67728533 38.67385904 15.89281302 38 8 C38.75925781 7.60167969 39.51851563 7.20335937 40.30078125 6.79296875 C41.29464844 6.26316406 42.28851563 5.73335937 43.3125 5.1875 C44.79169922 4.40439453 44.79169922 4.40439453 46.30078125 3.60546875 C48.98104079 2.18047122 48.98104079 2.18047122 50.6171875 0.2734375 C51.07351563 -0.14679688 51.52984375 -0.56703125 52 -1 C69.99787459 1.06532987 87.85461889 13.27799226 100.1875 26.0625 C102.07003158 29.11349946 102.86814292 31.35207438 102.58746338 34.97018433 C99.98134781 43.97488899 87.17908718 52.96486845 80.640625 59.4921875 C79.24519502 60.88829203 77.84991344 62.28454491 76.45477295 63.68093872 C73.54487449 66.59230456 70.63319226 69.50187118 67.72021484 72.41015625 C63.98542962 76.13921814 60.25518771 79.87278757 56.52624893 83.60769463 C53.65249985 86.48505266 50.77637905 89.36003045 47.8995285 92.23428726 C46.5224644 93.6106844 45.14614244 94.98782446 43.77057648 96.36571884 C41.85368981 98.28514035 39.93363525 100.20133535 38.01269531 102.11669922 C37.44538193 102.68603683 36.87806854 103.25537445 36.29356384 103.84196472 C30.42350904 109.68043675 30.42350904 109.68043675 25.9375 110.6875 C15.4704996 108.8599285 4.89571332 94.04144373 -2.50390625 86.62890625 C-3.87712788 85.25635956 -5.25049782 83.88396124 -6.62400818 82.51170349 C-9.4805374 79.6566383 -12.33527558 76.79979783 -15.1887207 73.94165039 C-18.85055523 70.27407583 -22.51691998 66.61106778 -26.18460178 62.94934177 C-29.01130035 60.12624708 -31.83562499 57.30078715 -34.65922356 54.47459221 C-36.01132716 53.12182109 -37.3641752 51.76979362 -38.71777534 50.41851997 C-40.59886187 48.53996173 -42.47673271 46.65824797 -44.35375977 44.77563477 C-44.91419983 44.21721893 -45.47463989 43.6588031 -46.05206299 43.08346558 C-49.40921475 39.70770082 -50.84120185 38.1512866 -51.5 33.375 C-51.39071892 28.70113236 -49.56343084 26.40094945 -46.359375 23.1328125 C-36.7485372 14.44486972 -26.78580845 8.31821906 -15 3 C-13.989375 2.53207031 -12.97875 2.06414062 -11.9375 1.58203125 C-7.43127811 -0.38273514 -4.86733859 -1.4409884 0 0 Z " fill="#628BA9" transform="translate(231,162)"/>
<path d="M0 0 C0.77601563 0.42410156 1.55203125 0.84820312 2.3515625 1.28515625 C11.06214442 6.51441864 16.78703308 14.41406025 20 24 C20.75 27.5625 20.75 27.5625 21 31 C21.103125 32.175625 21.20625 33.35125 21.3125 34.5625 C21.10763689 45.11295012 17.04207592 55.22795279 10 63 C5.42368002 67.24300533 0.71860518 69.64245003 -5 72 C-4.54787931 76.10487534 -4.0871449 80.20874213 -3.625 84.3125 C-3.43550781 86.03436523 -3.43550781 86.03436523 -3.2421875 87.79101562 C-2.63465045 93.15253011 -1.95566492 98.43780555 -0.8984375 103.73046875 C1.42834613 116.59780586 1.42834613 116.59780586 -1.30126953 121.18847656 C-3.10244258 123.33811649 -5.00291175 125.22264704 -7.0625 127.125 C-8.04766602 128.13046875 -8.04766602 128.13046875 -9.05273438 129.15625 C-12.16070358 132.15704785 -14.25537557 133.81716811 -18.5 134.859375 C-23.60680288 133.60547251 -26.31964228 130.81741613 -29.9375 127.125 C-30.62134766 126.49335938 -31.30519531 125.86171875 -32.00976562 125.2109375 C-35.54172097 121.68251059 -37.44359085 119.1826714 -37.5234375 114.08984375 C-37.39390696 112.38920685 -37.21940528 110.69139154 -37 109 C-36.91403564 108.20980469 -36.82807129 107.41960937 -36.73950195 106.60546875 C-36.44409458 104.2044453 -36.07780311 101.82484205 -35.6875 99.4375 C-35.55432373 98.58704102 -35.42114746 97.73658203 -35.28393555 96.86035156 C-33.96772024 88.55439302 -32.51091247 80.27251366 -31 72 C-31.92683594 71.70738281 -32.85367188 71.41476563 -33.80859375 71.11328125 C-43.33465444 67.79023682 -50.24514146 59.64860097 -55 51 C-58.61163772 40.22453766 -59.57884207 29.26509941 -54.96484375 18.609375 C-49.50820096 8.29263559 -42.06515304 1.39051825 -31.203125 -3.17578125 C-21.09267412 -5.77737288 -9.08927459 -5.26652914 0 0 Z " fill="#FDDEC4" transform="translate(275,98)"/>
<path d="M0 0 C11.30042647 -0.99922292 22.59939499 -1.67971913 33.9375 -2.0625 C34.76456074 -2.09045403 35.59162148 -2.11840805 36.44374466 -2.14720917 C72.30650599 -3.21487678 72.30650599 -3.21487678 86.53895569 9.4539032 C105.97243832 28.6631999 105.97243832 28.6631999 106.3125 39.3125 C106.28413514 42.83541599 106.06650675 43.89358919 104.125 47 C96.01323519 54.63460218 77.50400351 53.533277 67.08860779 53.47102356 C46.45401451 52.39051999 34.64695904 39.93241008 21.3125 25.5625 C20.77009045 24.97866798 20.22768089 24.39483597 19.66883469 23.79331207 C0 2.50422546 0 2.50422546 0 0 Z " fill="#81E6A4" transform="translate(398,462)"/>
<path d="M0 0 C11.74396339 -0.09276491 23.48783932 -0.16379816 35.23209476 -0.20724869 C40.68570479 -0.22810498 46.13906375 -0.2563872 51.5925293 -0.30175781 C56.85747679 -0.34528489 62.12218311 -0.36915184 67.38729668 -0.37950897 C69.39392327 -0.38688798 71.40053697 -0.40129754 73.40706062 -0.42292023 C76.22226396 -0.45204522 79.03647638 -0.45595218 81.85180664 -0.45410156 C82.67755692 -0.46848267 83.50330719 -0.48286377 84.3540802 -0.49768066 C92.36371155 -0.44087477 97.22182168 2.82455179 102.83984375 8.51171875 C104.0918457 9.77145508 104.0918457 9.77145508 105.36914062 11.05664062 C106.21669922 11.92482422 107.06425781 12.79300781 107.9375 13.6875 C109.24944336 15.00717773 109.24944336 15.00717773 110.58789062 16.35351562 C117 22.8457138 117 22.8457138 117 24 C72.12 24 27.24 24 -19 24 C-15.01766089 18.69021451 -11.04144444 13.60248567 -6.6875 8.625 C-2.96270238 4.57895622 -2.96270238 4.57895622 0 0 Z " fill="#81E6A4" transform="translate(337,422)"/>
<path d="M0 0 C0.87560074 -0.01650101 1.75120148 -0.03300201 2.65333557 -0.05000305 C5.53668363 -0.09873507 8.41954687 -0.12419318 11.30322266 -0.14526367 C12.29169819 -0.15499395 13.28017372 -0.16472424 14.29860306 -0.17474937 C19.52736708 -0.22548801 24.75588801 -0.2583084 29.98486328 -0.27636719 C35.37488554 -0.29841954 40.76219822 -0.38091734 46.15132713 -0.4774828 C50.30706477 -0.5409848 54.46215427 -0.55967079 58.61833572 -0.56632042 C60.60472427 -0.57721747 62.59109656 -0.60482032 64.57700729 -0.64972878 C80.09515062 -0.97701775 80.09515062 -0.97701775 85.02301025 2.66566467 C87.05977173 5.19016354 88.57165709 7.64357961 90.09228516 10.49926758 C91.12193398 11.78793501 92.17871745 13.05621768 93.27978516 14.28442383 C93.75029297 14.83420898 94.22080078 15.38399414 94.70556641 15.95043945 C95.66072446 17.06030621 96.61648941 18.16965087 97.57275391 19.27856445 C101.09228516 23.39454288 101.09228516 23.39454288 101.09228516 24.49926758 C56.21228516 24.49926758 11.33228516 24.49926758 -34.90771484 24.49926758 C-30.66779726 19.55269707 -26.47471654 14.85615576 -21.90771484 10.24926758 C-21.31732422 9.63825195 -20.72693359 9.02723633 -20.11865234 8.39770508 C-19.53341797 7.80731445 -18.94818359 7.21692383 -18.34521484 6.60864258 C-17.82830078 6.08238281 -17.31138672 5.55612305 -16.77880859 5.01391602 C-11.4138092 0.67095461 -6.62719976 0.03995759 0 0 Z " fill="#81E6A4" transform="translate(93.90771484375,421.500732421875)"/>
<path d="M0 0 C0.8672168 0.24339111 0.8672168 0.24339111 1.75195312 0.49169922 C5.30198088 1.29438794 8.87938234 1.14344118 12.5 1.125 C13.63888672 1.13080078 13.63888672 1.13080078 14.80078125 1.13671875 C18.37014456 1.13046768 21.56731602 0.96340936 25 0 C26.49843258 6.63136119 27.45473918 13.28323186 28.24511719 20.02978516 C28.81575667 24.80578955 29.59808677 29.48362458 30.6328125 34.1796875 C30.75398438 35.11039063 30.87515625 36.04109375 31 37 C31.09966064 37.74523926 31.19932129 38.49047852 31.30200195 39.25830078 C31.68709764 44.32606312 31.30976075 47.32001836 27.96484375 51.2578125 C26.64816029 52.57318059 25.30467807 53.86219651 23.9375 55.125 C23.28072266 55.7953125 22.62394531 56.465625 21.94726562 57.15625 C18.83929642 60.15704785 16.74462443 61.81716811 12.5 62.859375 C7.39319712 61.60547251 4.68035772 58.81741613 1.0625 55.125 C0.37865234 54.49335938 -0.30519531 53.86171875 -1.00976562 53.2109375 C-4.54172097 49.68251059 -6.44359085 47.1826714 -6.5234375 42.08984375 C-6.39390696 40.38920685 -6.21940528 38.69139154 -6 37 C-5.91403564 36.20980469 -5.82807129 35.41960937 -5.73950195 34.60546875 C-5.44409458 32.2044453 -5.07780311 29.82484205 -4.6875 27.4375 C-4.55432373 26.58704102 -4.42114746 25.73658203 -4.28393555 24.86035156 C-2.96772024 16.55439302 -1.51091247 8.27251366 0 0 Z " fill="#FB6096" transform="translate(244,170)"/>
<path d="M0 0 C11.56363104 -1.92022008 25.26393445 -3.95022016 35.37673569 3.23271751 C42.56052419 8.94086692 48.70072059 15.8122517 54.7744751 22.65625 C57.47221657 25.65861003 60.26409141 28.57084959 63.046875 31.49414062 C79 48.35301606 79 48.35301606 79 50 C67.43636896 51.92022008 53.73606555 53.95022016 43.62326431 46.76728249 C36.43947581 41.05913308 30.29927941 34.1877483 24.2255249 27.34375 C21.52778343 24.34138997 18.73590859 21.42915041 15.953125 18.50585938 C0 1.64698394 0 1.64698394 0 0 Z " fill="#81E6A4" transform="translate(346,462)"/>
</svg>
